<?xml version="1.0" encoding="iso-8859-1"?>
<!-- Generator: Adobe Illustrator 19.0.0, SVG Export Plug-In . SVG Version: 6.00 Build 0)  -->
<svg xmlns="http://www.w3.org/2000/svg" xmlns:xlink="http://www.w3.org/1999/xlink" version="1.1" id="Capa_1" x="0px" y="0px" viewBox="0 0 469.333 469.333" style="enable-background:new 0 0 469.333 469.333;" xml:space="preserve" width="512px" height="512px">
<g>
	<g>
		<g>
			<circle cx="53.333" cy="53.333" r="10.667" fill="#D80027"/>
			<circle cx="96" cy="53.333" r="10.667" fill="#D80027"/>
			<circle cx="138.667" cy="53.333" r="10.667" fill="#D80027"/>
			<path d="M426.667,0h-384C19.146,0,0,19.135,0,42.667v384c0,23.531,19.146,42.667,42.667,42.667h384     c23.521,0,42.667-19.135,42.667-42.667v-384C469.333,19.135,450.188,0,426.667,0z M448,426.667     c0,11.76-9.563,21.333-21.333,21.333h-384c-11.771,0-21.333-9.573-21.333-21.333v-320H448V426.667z M448,85.333H21.333V42.667     c0-11.76,9.563-21.333,21.333-21.333h384c11.771,0,21.333,9.573,21.333,21.333V85.333z" fill="#D80027"/>
			<path d="M125.417,309.01l20.438,5.115L135,332.188c-2.521,4.198-1.854,9.573,1.604,13.031l30.188,30.167     c3.479,3.469,8.854,4.104,13.042,1.604l18.042-10.833l5.104,20.438c1.188,4.74,5.458,8.073,10.354,8.073H256     c4.896,0,9.167-3.333,10.354-8.073l5.104-20.438L289.5,376.99c4.188,2.5,9.563,1.865,13.042-1.604l30.167-30.167     c3.458-3.458,4.125-8.833,1.604-13.031l-10.833-18.063l20.438-5.115c4.75-1.188,8.083-5.448,8.083-10.344V256     c0-4.896-3.333-9.156-8.083-10.344l-20.438-5.115l10.833-18.063c2.521-4.198,1.854-9.573-1.604-13.031l-30.167-30.167     c-3.479-3.49-8.854-4.104-13.042-1.604l-18.042,10.833l-5.104-20.438C265.167,163.333,260.896,160,256,160h-42.667     c-4.896,0-9.167,3.333-10.354,8.073l-5.104,20.438l-18.042-10.833c-4.188-2.5-9.563-1.885-13.042,1.604l-30.188,30.167     c-3.458,3.458-4.125,8.833-1.604,13.031l10.854,18.063l-20.438,5.115c-4.75,1.188-8.083,5.448-8.083,10.344v42.667     C117.333,303.562,120.667,307.823,125.417,309.01z M138.667,264.323l18.313-4.583c3.5-0.875,6.313-3.448,7.5-6.854     c0.938-2.719,1.979-5.375,3.25-7.948c1.563-3.25,1.396-7.063-0.458-10.156l-9.688-16.135l18.396-18.396l16.125,9.688     c3.104,1.854,6.917,2.021,10.167,0.448c2.583-1.26,5.25-2.302,7.979-3.25c3.396-1.188,5.958-4,6.833-7.479l4.583-18.323h26     l4.583,18.323c0.875,3.479,3.438,6.292,6.833,7.479c2.729,0.948,5.396,1.99,7.979,3.25c3.229,1.563,7.063,1.385,10.167-0.448     l16.125-9.677l18.375,18.385l-9.667,16.135c-1.854,3.094-2.021,6.906-0.458,10.156c1.271,2.594,2.313,5.271,3.271,8.01     c1.188,3.375,4,5.927,7.479,6.792l18.313,4.583v26.021l-18.313,4.583c-3.479,0.865-6.292,3.417-7.479,6.792     c-0.958,2.74-2,5.417-3.271,8.01c-1.563,3.25-1.396,7.063,0.458,10.156l9.667,16.135l-18.375,18.385l-16.125-9.677     c-3.083-1.865-6.917-2.031-10.167-0.448c-2.583,1.26-5.25,2.302-7.979,3.25c-3.396,1.188-5.958,4-6.833,7.479l-4.583,18.323h-26     l-4.583-18.323c-0.875-3.479-3.438-6.292-6.833-7.479c-2.729-0.948-5.396-1.99-7.979-3.25c-3.271-1.594-7.063-1.417-10.167,0.448     l-16.125,9.688l-18.396-18.396l9.688-16.135c1.854-3.094,2.021-6.906,0.458-10.156c-1.271-2.573-2.313-5.229-3.25-7.948     c-1.188-3.406-4-5.979-7.5-6.854l-18.313-4.583V264.323z" fill="#D80027"/>
			<path d="M234.667,330.667c29.417,0,53.333-23.927,53.333-53.333S264.083,224,234.667,224s-53.333,23.927-53.333,53.333     S205.25,330.667,234.667,330.667z M234.667,245.333c17.646,0,32,14.354,32,32c0,17.646-14.354,32-32,32s-32-14.354-32-32     C202.667,259.687,217.021,245.333,234.667,245.333z" fill="#D80027"/>
		</g>
	</g>
</g>
<g>
</g>
<g>
</g>
<g>
</g>
<g>
</g>
<g>
</g>
<g>
</g>
<g>
</g>
<g>
</g>
<g>
</g>
<g>
</g>
<g>
</g>
<g>
</g>
<g>
</g>
<g>
</g>
<g>
</g>
</svg>
